<?xml version="1.0" standalone="no"?><!DOCTYPE svg PUBLIC "-//W3C//DTD SVG 1.1//EN" "http://www.w3.org/Graphics/SVG/1.1/DTD/svg11.dtd"><svg t="1694197422339" class="icon" viewBox="0 0 1024 1024" version="1.1" xmlns="http://www.w3.org/2000/svg" p-id="11775" xmlns:xlink="http://www.w3.org/1999/xlink" width="200" height="200"><path d="M401.4054 331.733802s12.2794 35.828251-8.1896 46.057751-110.534603 12.2794-126.903804 69.596602-18.4291 117.694253-33.77835 141.233104-49.127601 79.836102-112.584503 123.843953c0 0-30.698501 12.2794-83.915902 11.25945S2.25489 761.592813 50.352541 764.662663s138.343245-16.219208 203.670056-87.995703c60.267057-66.236766 68.576652-123.843953 68.576651-123.843953V764.962648L471.002002 826.069665l115.654353-95.185353s-4.0998-150.442654-6.139701-175.991406c0 0 33.768351 111.554553 99.275153 159.662204s185.240955 52.197451 196.500405 11.25945c0 0 8.1896-24.5688-57.317201-15.35925s-92.57548-43.997852-113.164474-69.046629c-14.239305-17.349153-39.32808-48.647625-42.39793-72.186475S642.993604 423.849304 592.796055 404.400254s-99.275153-12.2794-96.205303-43.997852l0.999952-28.6586z" fill="#F9CAA8" p-id="11776"></path><path d="M471.002002 830.089468a3.999805 3.999805 0 0 1-1.529925-0.299985l-148.402754-61.107016a3.999805 3.999805 0 0 1-2.489879-3.719819V581.701597c-8.709575 23.418857-26.388711 58.997119-61.576993 97.645232-29.448562 32.36842-67.446707 57.667184-109.894634 73.166427-33.128382 12.08941-68.486656 17.999121-96.995264 16.159211C36.433221 767.80251 23.723842 763.962697 14.324301 757.96299S-0.144993 744.503647 0.154992 737.333997c0.229989-5.509731 4.179796-18.239109 35.948245-17.629139 48.457634 0.929955 78.216181-9.439539 81.995996-10.829471 58.317152-40.568019 91.705522-92.36549 107.774738-117.294273 1.189942-1.84991 2.299888-3.579825 3.329837-5.149748 8.299595-12.739378 12.709379-37.998145 17.81913-67.316713 3.919809-22.498901 8.359592-47.997656 15.459245-72.836444 5.769718-20.209013 20.27901-35.62826 44.327836-47.147698 19.849031-9.499536 41.997949-14.3393 59.877076-18.22911 10.819472-2.369884 20.169015-4.409785 24.768791-6.709672 17.079166-8.539583 6.289693-40.828006 6.179698-41.15799a3.999805 3.999805 0 0 1 3.809814-5.319741h96.205303a3.999805 3.999805 0 0 1 3.999804 4.169797l-0.999951 28.648601v0.249988c-1.579923 16.369201 12.929369 20.089019 43.257888 26.298716 15.309252 3.139847 32.658405 6.689673 50.397539 13.569337 22.398906 8.689576 40.997998 36.748206 55.357297 83.425926 10.229501 33.308374 15.539241 67.296714 17.799131 84.58587 2.999854 23.298862 29.998535 56.127259 41.517973 70.146575 3.049851 3.709819 6.209697 7.999609 9.569533 12.539388 19.439051 26.42871 46.217743 62.616943 99.865123 55.08731 31.208476-4.389786 50.99751-1.869909 58.77713 7.489634a14.3293 14.3293 0 0 1 2.999854 12.999366c-2.999854 10.809472-12.659382 19.319057-27.878639 24.618798-41.36798 14.379298-123.363976 3.999805-174.861462-33.788351-34.498316-25.328763-60.067067-67.99668-75.436316-99.345149-6.639676-13.51934-11.999414-26.168722-16.059216-36.498218 2.059899 50.217548 4.619774 143.942972 4.759767 148.862732a3.999805 3.999805 0 0 1-1.469928 3.219842l-115.684351 95.185353a3.999805 3.999805 0 0 1-2.559875 0.909955z m-144.38295-67.816688l143.682984 59.157111 112.274518-92.395488c-0.489976-17.799131-4.189795-150.252663-6.069704-173.861511a3.999805 3.999805 0 0 1 7.859616-1.489927c0.329984 1.109946 34.158332 110.844588 97.805225 157.582305 22.578898 16.58919 53.467389 28.998584 86.995752 34.898296 31.208476 5.51973 60.537044 4.70977 80.466071-2.219891 8.829569-3.06985 19.999023-8.899565 22.788887-19.239061a1.719916 1.719916 0 0 1 0.069997-0.20999 6.259694 6.259694 0 0 0-1.589923-5.559728c-3.399834-3.909809-14.599287-9.699526-51.357492-4.529779a108.884683 108.884683 0 0 1-15.139261 1.089947c-48.517631 0-74.586358-35.288277-92.375489-59.367101-3.289839-4.459782-6.399688-8.659577-9.319545-12.209404-19.749036-24.048826-40.33803-51.667477-43.277887-74.216376-2.219892-16.99917-7.449636-50.517533-17.509145-83.265935-13.379347-43.577872-30.868493-70.64655-50.57753-78.286177-17.109165-6.629676-34.108335-10.109506-49.107602-13.189356-14.369298-2.939856-26.778692-5.479732-35.608262-10.089508-10.489488-5.469733-15.089263-13.569337-14.049314-24.738792l0.869958-24.378809h-86.715766c2.759865 11.139456 6.659675 36.44822-11.719428 45.637771-5.499731 2.749866-14.839275 4.789766-26.658698 7.369641-34.448318 7.509633-86.505776 18.869079-98.185206 59.727083-6.999658 24.428807-11.379444 49.707573-15.269254 71.996485-5.249744 30.168527-9.789522 56.207256-18.999073 70.326566l-3.309838 5.159748c-16.3792 25.418759-50.467536 78.306176-110.344612 119.834149a4.069801 4.069801 0 0 1-0.799961 0.419979c-1.289937 0.519975-32.068434 12.579386-85.495826 11.549436-16.57919-0.319984-27.498657 3.579825-27.758644 9.919516-0.339983 8.249597 15.999219 21.29896 42.417929 22.998877 27.458659 1.749915 61.616991-3.999805 93.745422-15.699234 41.227987-14.999268 78.116186-39.608066 106.694791-70.996533 58.747131-64.576847 67.486705-121.144085 67.5667-121.704057a3.999805 3.999805 0 0 1 7.99961 0.569972zM119.949143 712.465212z" fill="#323232" p-id="11777"></path><path d="M528.329203 387.88106c1.999902 48.077652-3.409834 144.222958-78.84615 137.293297-80.816054-7.429637-84.555871-103.204961-82.995948-140.143157-7.999609 1.749915-16.99917 3.739817-26.298716 6.289693 1.599922 34.61831 2.099897 103.63494-17.629139 161.482115V764.962648L471.002002 826.069665l115.654353-95.185353s-4.0998-150.442654-6.139701-175.991406c0 0-26.998682-84.99585-22.998877-160.78215-8.649578-1.859909-22.028924-4.559777-29.188574-6.229696z" fill="#2A2828" p-id="11778"></path><path d="M471.002002 830.089468a3.999805 3.999805 0 0 1-1.529925-0.299985L321.009326 768.682467a3.999805 3.999805 0 0 1-2.489879-3.719819V552.803008a4.109799 4.109799 0 0 1 0.20999-1.299937c9.999512-29.228573 21.08897-80.706059 17.419149-159.992188a3.999805 3.999805 0 0 1 2.949856-4.059802c8.999561-2.469879 17.679137-4.409785 26.508706-6.33969a3.999805 3.999805 0 0 1 4.869762 4.109799c-0.739964 17.189161-0.389981 50.397539 10.339495 79.576115 12.629383 34.368322 35.828251 53.337396 68.996631 56.377247 18.399102 1.689917 33.608359-3.049851 45.217793-14.089312 28.578605-27.168673 30.598506-86.235789 29.248571-118.99419a3.999805 3.999805 0 0 1 4.939759-4.079801c4.789766 1.119945 12.639383 2.749866 19.559045 4.179796 3.419833 0.709965 6.699673 1.389932 9.479537 1.999903a3.999805 3.999805 0 0 1 3.179845 4.139798c-3.88981 74.116381 22.578898 158.51226 22.848884 159.352219a4.489781 4.489781 0 0 1 0.179992 0.899956c1.999902 25.39876 5.999707 170.101694 6.149699 176.241394a3.999805 3.999805 0 0 1-1.469928 3.219843l-115.614355 95.135355a3.999805 3.999805 0 0 1-2.529876 0.909955z m-144.412949-67.816688l143.682984 59.157111 112.274518-92.395488c-0.489976-17.689136-4.139798-148.652742-5.999707-173.421533-2.079898-6.739671-26.108725-86.42578-23.228865-158.312269l-6.099703-1.269938c-5.089751-1.059948-10.299497-2.139896-14.649284-3.07985 0.929955 34.908295-2.559875 91.995508-31.928441 119.994141-13.369347 12.709379-30.688502 18.179112-51.487486 16.269205-36.498218-3.349836-61.996973-24.078824-75.796299-61.616991-10.189502-27.738646-11.419442-58.717133-10.999463-77.486216-5.999707 1.329935-11.909418 2.699868-17.939124 4.29979 1.829911 44.127845 0.059997 106.384805-17.769133 159.102231z" fill="#323232" p-id="11779"></path><path d="M562.437537 835.869186L681.881705 866.957668l-30.10853 107.73474s-120.63411-32.458415-120.114135-34.548313 30.778497-104.274908 30.778497-104.274909z" fill="#F9CAA8" p-id="11780"></path><path d="M651.773175 978.712211a4.249792 4.249792 0 0 1-0.999951-0.129993c-0.299985-0.089996-30.51851-8.219599-60.277057-16.499195-17.499146-4.869762-31.418466-8.839568-41.377979-11.799424-5.999707-1.769914-10.549485-3.189844-13.669333-4.239793-4.999756-1.679918-8.629579-2.889859-7.639627-6.869664 0.529974-2.119896 27.718647-93.99541 30.818495-104.4449a3.999805 3.999805 0 0 1 4.869762-2.749866l119.454168 31.058483a3.999805 3.999805 0 0 1 2.85986 4.999756l-30.168527 107.73474a3.999805 3.999805 0 0 1-3.869811 2.939856zM536.488804 937.954201C549.998145 942.683971 609.195254 959.043172 648.993311 969.772648l27.938636-99.995118-111.744544-29.038582c-9.339544 31.558459-24.768791 83.725912-28.698599 97.215253z" fill="#323232" p-id="11781"></path><path d="M551.508071 958.443201c-35.608261-10.599482-331.823798-98.905171-384.131244-120.604111a110.334613 110.334613 0 0 1-31.428465-22.628895c-18.809082-19.749036-24.468805-42.677916-16.829178-68.136673 7.359641-24.538802 27.188672-36.998193 58.997119-36.998194 28.838592 0 59.3871 9.999512 74.066383 14.869274l1.64992 0.539974c30.998486 10.139505 311.824774 95.205351 349.922914 106.734788z" fill="#FFD41D" p-id="11782"></path><path d="M178.076305 706.065524v7.99961c28.178624 0 58.317152 9.899517 72.796445 14.649284l1.659919 0.549973c30.068532 9.83952 294.655613 89.995606 345.753118 105.48485L549.178185 953.55344c-47.997656-14.299302-329.253923-98.3052-380.181437-119.40417a105.134866 105.134866 0 0 1-29.998535-21.538948C121.159084 793.961232 115.749348 772.282291 123.018993 748.233465c6.889664-22.998877 24.908784-34.118334 55.09731-34.118334v-7.999609m0 0c-27.558654 0-53.547385 8.999561-62.806933 39.848054-19.549045 65.176818 50.57753 95.63533 50.57753 95.63533 56.227255 23.328861 387.981056 121.784054 387.981056 121.784054l55.277301-133.663474S288.460915 732.614228 255.012548 721.664762c-13.749329-4.489781-46.327738-15.599238-76.99624-15.599238z" fill="#323232" p-id="11783"></path><path d="M576.186866 996.15136a16.269206 16.269206 0 0 1-15.219257-21.998926l54.457341-142.373048a16.249207 16.249207 0 0 1 30.428514 11.439441l-54.447341 142.403047a16.329203 16.329203 0 0 1-15.219257 10.529486z" fill="#FFD41D" p-id="11784"></path><path d="M630.634207 825.299702a12.249402 12.249402 0 0 1 11.449441 16.539193l-54.437342 142.353049a12.239402 12.239402 0 1 1-22.908881-8.59958l54.437342-142.35305a12.249402 12.249402 0 0 1 11.45944-7.939612m0-7.999609a20.389004 20.389004 0 0 0-18.999072 13.129359l-54.407343 142.293052v0.049997a20.26901 20.26901 0 0 0 18.999072 27.398663 20.369005 20.369005 0 0 0 18.999072-13.129359l54.437342-142.333051a20.27901 20.27901 0 0 0-18.999072-27.408661z" fill="#323232" p-id="11785"></path><path d="M552.997998 986.951809a16.269206 16.269206 0 0 1-15.219257-21.998926l54.447342-142.373048a16.249207 16.249207 0 0 1 30.428514 11.439441L568.197256 976.462321A16.329203 16.329203 0 0 1 552.997998 986.951809z" fill="#FFD41D" p-id="11786"></path><path d="M607.425341 816.140149a12.259401 12.259401 0 0 1 11.45944 16.539193l-54.447341 142.353049a12.239402 12.239402 0 1 1-22.908882-8.59958L595.995899 824.079762a12.229403 12.229403 0 0 1 11.449441-7.939613m0-7.999609a20.359006 20.359006 0 0 0-18.999073 13.129359L533.998926 963.562951a20.27901 20.27901 0 0 0 37.998144 14.269303l54.397344-142.283052v-0.049998a20.26901 20.26901 0 0 0-18.999072-27.398662z" fill="#323232" p-id="11787"></path><path d="M347.508032 836.959133l-116.674303 40.258034 41.907954 103.254958s117.744251-41.737962 117.054284-43.787862S347.508032 836.959133 347.508032 836.959133z" fill="#F9CAA8" p-id="11788"></path><path d="M272.741683 984.491929A3.999805 3.999805 0 0 1 269.011865 981.952053l-41.907954-103.21496a3.999805 3.999805 0 0 1 0.069997-3.179845 3.999805 3.999805 0 0 1 2.349885-2.139895l116.674303-40.258035a3.999805 3.999805 0 0 1 4.999756 2.229892c6.999658 16.329203 41.707963 97.935218 42.407929 99.995117 1.299937 3.88981-2.219892 5.379737-7.079654 7.439637-2.999854 1.289937-7.509633 3.06985-13.299351 5.289741-9.699526 3.729818-23.268864 8.769572-40.33803 14.999268-28.998584 10.579483-58.517143 20.998975-58.817128 21.138968a3.89981 3.89981 0 0 1-1.329935 0.239988z m-36.588214-104.85488L275.011572 975.392373c38.738108-13.749329 96.395293-34.638309 109.714643-40.438025-5.659724-13.51934-28.538607-67.296714-39.448074-92.915463z" fill="#323232" p-id="11789"></path><path d="M315.929574 828.229559c36.138235-13.849324 294.415624-112.85449 324.464157-125.353879l1.599922-0.669967c14.999268-6.259694 50.147551-20.918979 81.30603-20.918979 27.188672 0 44.537825 10.669479 52.997412 32.628407 9.599531 24.78879 5.72972 48.087652-11.489439 69.246619a110.304614 110.304614 0 0 1-29.628553 24.998779C684.901558 833.819286 411.424911 937.284234 377.776554 949.953616z" fill="#FFD41D" p-id="11790"></path><path d="M723.299683 685.306538c25.328763 0 41.457976 9.82952 49.287593 30.058532 8.999561 23.268864 5.399736 45.157795-10.709477 65.066823a105.764836 105.764836 0 0 1-28.508608 24.178819C684.391582 829.529496 425.064245 927.814697 379.726459 944.95386l-58.197159-114.564406C370.766896 811.520375 612.405097 718.874899 641.993653 706.585499l1.599922-0.669968c14.789278-6.169699 49.407588-20.608994 79.756105-20.608993m0-8.049607c-33.108383 0-69.796592 15.809228-84.445876 21.898931-32.528412 13.50934-328.583956 126.913803-328.583956 126.913803l65.496802 128.993701s307.045008-115.644353 361.282359-143.283004c0 0 67.556701-35.818251 42.9979-99.275152-10.359494-26.778692-32.618407-35.208281-56.787227-35.208281z" fill="#323232" p-id="11791"></path><path d="M109.429657 970.772599a69.596602 69.596602 0 0 1 46.107748-86.995752l55.597286-16.819179A58.317152 58.317152 0 0 1 284.011132 905.63578l6.619677 21.558947a58.307153 58.307153 0 0 1-38.618114 72.866442l-55.597286 16.819179a69.596602 69.596602 0 0 1-86.985752-46.107749z" fill="#FFFFFF" p-id="11792"></path><path d="M175.866413 1024a73.636404 73.636404 0 0 1-21.50895-143.992969L210.014745 863.147854a62.326957 62.326957 0 0 1 77.866198 41.307983l6.619677 21.558947a62.396953 62.396953 0 0 1-41.297983 77.886197l-55.617285 16.829179a73.746399 73.746399 0 0 1-21.718939 3.26984z m-62.596944-54.407343a65.576798 65.576798 0 0 0 81.935999 43.437879l55.607285-16.819179a54.357346 54.357346 0 0 0 35.998243-67.836688l-6.619677-21.558947a54.297349 54.297349 0 0 0-67.836688-35.998242l-55.617284 16.829178a65.646795 65.646795 0 0 0-43.42788 81.926l-3.839812 1.179942z" fill="#323232" p-id="11793"></path><path d="M822.564836 954.663386a69.596602 69.596602 0 0 0-52.727426-83.105943l-56.737229-12.439392a58.317152 58.317152 0 0 0-69.6366 44.187842l-4.91976 21.998926A58.317152 58.317152 0 0 0 682.721664 994.951418l56.73723 12.449393a69.586602 69.586602 0 0 0 83.105942-52.737425z" fill="#FFFFFF" p-id="11794"></path><path d="M754.798145 1013.120531a73.886392 73.886392 0 0 1-16.209209-1.799912l-56.72723-12.439392a62.336956 62.336956 0 0 1-47.247693-74.446365l4.91976-21.998926A62.416952 62.416952 0 0 1 713.990137 855.188243l56.717231 12.449392a73.696402 73.696402 0 0 1 55.797275 87.905708 73.666403 73.666403 0 0 1-71.696499 57.577188z m-54.427343-151.392608a54.377345 54.377345 0 0 0-52.997412 42.447928l-4.929759 21.998926a54.297349 54.297349 0 0 0 41.137991 64.836834l56.72723 12.439392a65.566798 65.566798 0 0 0 78.316176-49.677574l3.919809 0.869958-3.919809-0.869958A65.646795 65.646795 0 0 0 768.987452 875.487252l-56.717231-12.439393a54.317348 54.317348 0 0 0-11.899419-1.319936z" fill="#323232" p-id="11795"></path><path d="M351.84782 984.861911a16.309204 16.309204 0 0 1-14.729281-9.379542l-65.33681-137.663278a16.249207 16.249207 0 0 1 7.839618-21.628944 15.999219 15.999219 0 0 1 6.869664-1.529925 16.319203 16.319203 0 0 1 14.73928 9.379542l65.33681 137.663278a16.269206 16.269206 0 0 1-7.849617 21.628944 15.999219 15.999219 0 0 1-6.869664 1.529925z" fill="#FFD41D" p-id="11796"></path><path d="M286.491011 818.680025a12.229403 12.229403 0 0 1 11.089459 7.059656l65.346809 137.693276a12.229403 12.229403 0 1 1-22.168918 10.349495l-65.346809-137.693277a12.239402 12.239402 0 0 1 11.079459-17.40915m0-7.999609a20.27901 20.27901 0 0 0-18.369103 28.858591l65.33681 137.663278a20.27901 20.27901 0 0 0 36.738206-17.179161l-65.33681-137.703276a20.349006 20.349006 0 0 0-18.369103-11.67943z" fill="#323232" p-id="11797"></path><path d="M372.796797 971.012587a16.339202 16.339202 0 0 1-14.73928-9.389541L292.730707 823.959768a16.259206 16.259206 0 0 1 14.709281-23.15887 16.329203 16.329203 0 0 1 14.739281 9.389542l65.336809 137.663278a16.269206 16.269206 0 0 1-14.719281 23.158869z" fill="#FFD41D" p-id="11798"></path><path d="M307.439988 804.830702a12.229403 12.229403 0 0 1 11.089459 7.059655l65.346809 137.683277A12.229403 12.229403 0 1 1 361.707339 959.953127l-65.34681-137.713275a12.229403 12.229403 0 0 1 5.909712-16.279206 12.219403 12.219403 0 0 1 5.169747-1.149943m0-7.99961a20.27901 20.27901 0 0 0-18.369103 28.858591v0.049998l65.356809 137.633279a20.359006 20.359006 0 0 0 18.369103 11.67943 19.999023 19.999023 0 0 0 8.569582-1.909907 20.289009 20.289009 0 0 0 9.799521-26.948684v-0.049997L325.809091 808.460524a20.349006 20.349006 0 0 0-18.369103-11.679429z" fill="#323232" p-id="11799"></path><path d="M226.063962 602.31059s12.999365-6.859665 35.688257 0" fill="#FFFFFF" p-id="11800"></path><path d="M261.752219 606.330394a3.999805 3.999805 0 0 1-1.169943-0.169992c-20.568996-6.189698-32.56841-0.339983-32.668405-0.279986a3.999805 3.999805 0 0 1-3.719818-7.129652c0.589971-0.309985 14.769279-7.549631 38.718109-0.289986a3.999805 3.999805 0 0 1-1.159943 7.869616z" fill="#323232" p-id="11801"></path><path d="M626.744397 595.450925s21.998926-8.919564 42.537923-3.429832" fill="#FFFFFF" p-id="11802"></path><path d="M626.744397 599.470729a3.999805 3.999805 0 0 1-1.509926-7.749622c0.939954-0.379981 23.448855-9.359543 45.087798-3.589824a3.999805 3.999805 0 1 1-2.069899 7.76962c-19.059069-5.079752-39.788057 3.189844-39.998046 3.269841a3.839813 3.839813 0 0 1-1.509927 0.299985z" fill="#323232" p-id="11803"></path><path d="M340.198389 226.188956s-21.258962-19.319057-31.888443-7.729623 1.289937 53.837371 15.939222 57.997168 25.60875-7.729623 25.608749-7.729622z" fill="#F9CAA8" p-id="11804"></path><path d="M330.558859 281.686246a27.358664 27.358664 0 0 1-7.489634-1.049949c-9.759523-2.759865-16.909174-16.669186-20.349006-28.778595-3.539827-12.459392-4.769767-28.548606 2.369884-36.338225 4.059802-4.419784 11.709428-8.259597 25.128773-1.429931a65.566798 65.566798 0 0 1 12.90937 8.899566 4.379786 4.379786 0 0 1 1.319935 2.25989l9.659529 42.507924a4.349788 4.349788 0 0 1-1.049949 3.929808c-0.439979 0.459978-9.41954 9.999512-22.498902 9.999512z m-13.479341-62.556946a7.209648 7.209648 0 0 0-5.559729 2.279889c-3.699819 4.049802-3.879811 15.849226-0.40998 28.05863 3.359836 11.799424 9.379542 21.378956 14.3293 22.768888 8.999561 2.559875 16.459196-2.369884 19.609043-4.999756l-8.789571-38.668112a57.477193 57.477193 0 0 0-10.129505-6.75967q-5.299741-2.679869-9.049558-2.679869z" fill="#323232" p-id="11805"></path><path d="M563.777472 222.329144S584.996436 202.990088 595.665915 214.599522s-1.289937 53.837371-15.939222 57.997168-25.60875-7.729623-25.60875-7.729623z" fill="#F9CAA8" p-id="11806"></path><path d="M573.417001 277.826434c-13.079361 0-22.058923-9.549534-22.498901-9.999511a4.359787 4.359787 0 0 1-0.999951-3.929809l9.659528-42.507924a4.409785 4.409785 0 0 1 1.319935-2.269889 66.226766 66.226766 0 0 1 12.90937-8.869567c13.419345-6.829667 21.068971-2.999854 25.128773 1.419931 7.139651 7.799619 5.909711 23.888834 2.369884 36.348225-3.439832 12.099409-10.589483 25.998731-20.349006 28.778595a27.748645 27.748645 0 0 1-7.539632 1.029949z m-14.489292-14.459294c3.139847 2.629872 10.559484 7.56963 19.609042 4.999756 4.999756-1.399932 10.999463-10.999463 14.3293-22.768888 3.469831-12.209404 3.289839-23.998828-0.40998-28.05863-2.909858-3.169845-7.819618-2.999854-14.609286 0.389981a56.917221 56.917221 0 0 0-10.129506 6.75967z" fill="#323232" p-id="11807"></path><path d="M332.918744 59.897075m117.474264 0l1.329935 0q117.474264 0 117.474264 117.474264l0 64.076872q0 117.474264-117.474264 117.474263l-1.329935 0q-117.474264 0-117.474264-117.474263l0-64.076872q0-117.474264 117.474264-117.474264Z" fill="#F9CAA8" p-id="11808"></path><path d="M451.062975 363.282262a122.494019 122.494019 0 0 1-122.504018-122.504019V177.991309a122.504018 122.504018 0 0 1 244.988038 0v62.746936A122.494019 122.494019 0 0 1 451.062975 363.282262z m0-298.985401A113.794444 113.794444 0 0 0 337.278531 177.991309v62.746936a113.794444 113.794444 0 0 0 113.784444 113.824442 113.794444 113.794444 0 0 0 113.774445-113.784444V177.991309A113.794444 113.794444 0 0 0 451.062975 64.256862z" fill="#323232" p-id="11809"></path><path d="M548.998193 243.478111a64.076871 64.076871 0 0 0-52.237449 101.215058 111.354563 111.354563 0 0 0 67.99668-99.255153 63.706889 63.706889 0 0 0-15.729232-1.999903z" fill="#FFAEAE" opacity=".33" p-id="11810"></path><path d="M350.397891 244.438065a64.476852 64.476852 0 0 0-12.889371 1.299936 111.364562 111.364562 0 0 0 65.806787 98.995166 64.086871 64.086871 0 0 0-52.917416-100.255104z" fill="#FFAEAE" opacity=".33" p-id="11811"></path><path d="M373.486763 97.305249s7.539632-43.747864-26.398711-71.646502-64.856833-21.868932-79.946096 0 0 67.876686 42.237938 79.996094 49.777569 11.309448 49.777569 11.309448z" fill="#2A2828" p-id="11812"></path><path d="M358.867477 121.344075c-2.949856 0-14.079313-0.999951-50.697524-11.489439a71.226522 71.226522 0 0 1-30.52851-17.559143 69.996582 69.996582 0 0 1-16.99917-26.308715c-5.709721-15.939222-4.649773-31.998438 2.859861-42.837908A46.717719 46.717719 0 0 1 295.660563 2.999854c11.999414-1.679918 31.158479 0.289986 54.237352 19.269059 14.719281 12.099409 24.228817 29.048582 27.488658 48.997607a87.995703 87.995703 0 0 1 0.459977 26.818691l-0.169991 0.999951-16.109214 21.998926-1.999902 0.18999a6.049705 6.049705 0 0 1-0.699966 0.069997z m-56.217255-109.994629a40.678014 40.678014 0 0 0-5.759719 0.39998 37.438172 37.438172 0 0 0-26.098725 16.429198C265.01206 36.588213 264.292095 49.927562 269.011865 62.996924a60.997022 60.997022 0 0 0 14.839275 22.998877 62.426952 62.426952 0 0 0 26.778693 15.389249c30.168527 8.619579 42.237938 10.589483 46.397734 10.999462l12.269401-16.78918a83.895904 83.895904 0 0 0-0.669967-23.228866c-2.999854-17.909126-11.169455-32.478414-24.318813-43.277886-14.229305-11.689429-28.498608-17.749133-41.657966-17.749134z m70.836541 85.995801z m0 0z" fill="#323232" p-id="11813"></path><path d="M340.218388 72.846443c-10.219501 12.329398-13.72933 24.068825-14.719282 32.598408 23.458855 5.999707 28.298618 5.489732 28.298619 5.489732l14.3293-19.609042a87.295738 87.295738 0 0 0-3.229842-36.998194 68.526654 68.526654 0 0 0-24.678795 18.519096z" fill="#E93539" p-id="11814"></path><path d="M353.547737 115.364367c-2.139896 0-9.199551-0.569972-29.138577-5.629725l-3.759817-0.949954 0.449978-3.849812c0.999951-8.469586 4.519779-21.398955 15.709233-34.918295a72.876442 72.876442 0 0 1 26.258718-19.719037l4.559777-2.069899 1.499927 4.779767a91.195547 91.195547 0 0 1 3.359836 39.068092l-0.179991 0.999951-16.109213 22.048924-1.999903 0.18999c-0.099995 0.029999-0.309985 0.049998-0.649968 0.049998z m-23.048875-13.229354c12.309399 2.999854 18.409101 3.999805 21.138968 4.249792l12.259402-16.77918a85.125843 85.125843 0 0 0-1.829911-28.928588 62.376954 62.376954 0 0 0-18.4391 14.999268c-8.229598 9.919516-11.719428 19.369054-13.129359 26.458708z m9.719526-29.28857z" fill="#323232" p-id="11815"></path><path d="M518.059704 94.805371s-7.539632-43.737864 26.398711-71.646502 64.866833-21.868932 79.946096 0 0 67.876686-42.237937 79.996094-49.777569 11.309448-49.77757 11.309448z" fill="#2A2828" p-id="11816"></path><path d="M532.68899 118.854197h-0.739964l-1.999902-0.199991-16.109214-21.998925-0.179991-0.999952a88.645672 88.645672 0 0 1 0.469977-26.82869c3.259841-19.949026 12.759377-36.888199 27.478658-48.997607C564.727425 0.769962 583.88649-1.209941 595.895904 0.479977a46.727718 46.727718 0 0 1 32.158429 20.169015c7.499634 10.879469 8.569582 26.898687 2.849861 42.837908a70.076578 70.076578 0 0 1-16.99917 26.318715 71.346516 71.346516 0 0 1-30.51851 17.559143c-36.628212 10.459489-47.747669 11.489439-50.697524 11.489439z m-10.399492-25.758743l12.2694 16.779181c4.159797-0.439979 16.229208-2.399883 46.397735-10.999463a62.626942 62.626942 0 0 0 26.778692-15.389248 61.247009 61.247009 0 0 0 14.839276-22.998877c4.689771-13.059362 3.999805-26.408711-1.809912-34.8283a37.48817 37.48817 0 0 0-26.098725-16.429198c-14.699282-2.059899-31.088482 3.929808-47.397686 17.339154-28.87859 23.75884-25.778741 60.147063-24.97878 66.526751z" fill="#323232" p-id="11817"></path><path d="M554.167941 66.526752c10.219501 12.329398 13.72933 24.068825 14.729281 32.608407-23.468854 5.999707-28.298618 5.479732-28.298618 5.479733L526.269303 84.99585a87.135745 87.135745 0 0 1 3.219843-36.998194 68.496655 68.496655 0 0 1 24.678795 18.529096z" fill="#E93539" p-id="11818"></path><path d="M540.838592 109.044676a4.829764 4.829764 0 0 1-0.669967 0l-1.999903-0.189991-16.109213-21.998926-0.169992-0.999951a90.995557 90.995557 0 0 1 3.359836-39.068093l1.489927-4.769767 4.579777 1.979904a72.566457 72.566457 0 0 1 26.258718 19.719037c11.189454 13.50934 14.719281 26.438709 15.709232 34.908295l0.449978 3.849812-3.749816 0.999952c-19.939026 5.009755-26.988682 5.569728-29.148577 5.569728z m-10.349495-25.758743l12.269401 16.779181c2.719867-0.289986 8.829569-1.22994 21.128968-4.249792-1.409931-7.079654-4.899761-16.539192-13.119359-26.468708a62.516947 62.516947 0 0 0-18.449099-14.999268 84.555871 84.555871 0 0 0-1.829911 28.938587z" fill="#323232" p-id="11819"></path><path d="M445.833231 48.617626S331.338821 45.287789 324.299165 154.992432c0 0-0.739964 36.25823 0.81996 56.73723a13.879322 13.879322 0 0 0 5.589727 10.059508c2.799863 2.079898 7.139651 4.339788 10.759475 8.219599 5.409736 5.809716 8.129603 14.689283 11.749426 14.589288 2.389883-0.059997 9.489537-2.159895 7.679625-20.239012s-0.449978-55.997266 18.759084-64.616845c28.278619-12.649382 44.057849-4.749768 59.19711-3.849812 6.569679 0.39998 17.449148 2.85986 38.648112-4.519779 20.788985-7.229647 54.227352-5.069752 62.586944 25.308764 10.189502 36.998193 10.469489 51.107505 10.169504 59.657087-0.179991 5.149749 4.519779 8.139603 9.489537-6.329691s13.999316-13.229354 16.269205-18.139114 2.25989-60.997022-3.159846-81.276032-44.347835-89.825614-127.023797-81.975997z" fill="#2A2828" p-id="11820"></path><path d="M353.137757 248.987842c-4.549778 0-7.109653-4.229793-9.819521-8.709574a44.477828 44.477828 0 0 0-5.089751-7.289644 38.398125 38.398125 0 0 0-7.259646-5.709722c-0.999951-0.679967-1.999902-1.319936-2.889858-1.999902a18.249109 18.249109 0 0 1-7.369641-13.269352c-1.559924-20.459001-0.859958-55.677281-0.829959-57.167209v-0.18999c1.659919-25.918734 9.359543-47.897661 22.868883-65.326811 10.839471-13.999316 25.358762-24.998779 43.177892-32.7684a154.532454 154.532454 0 0 1 59.737083-12.419393c19.709038-1.83991 38.438123 0.489976 55.667282 6.919662a122.993994 122.993994 0 0 1 39.998047 24.648796c22.498901 20.528998 33.278375 44.097847 35.828251 53.677379 3.47983 12.999365 4.389786 37.538167 4.609774 47.467683 0.129994 5.269743 0.60997 31.788448-1.699917 36.808202-1.399932 2.999854-3.999805 4.559777-6.33969 5.899712-3.329837 1.929906-7.109653 4.109799-9.759523 11.829423-1.259938 3.669821-5.099751 14.819276-12.439393 13.459343-3.549827-0.659968-5.819716-4.159797-5.659724-8.719575 0.219989-6.329691 0.669967-19.489048-9.999511-58.327152-2.609873-9.489537-8.069606-16.479195-16.249207-20.768986-13.239354-6.999658-30.158527-5.179747-40.618017-1.539924-19.269059 6.709672-30.758498 5.629725-37.628162 4.999755-0.999951-0.099995-1.929906-0.179991-2.729867-0.229988a105.804834 105.804834 0 0 1-11.319447-1.479928c-11.87942-1.999902-25.348762-4.199795-45.807764 4.949758-8.79957 3.929808-12.869372 16.069215-14.729281 25.558752a127.623768 127.623768 0 0 0-1.42993 34.578312c0.999951 9.879518-0.39998 16.99917-4.119799 21.248962a10.999463 10.999463 0 0 1-7.849616 3.859812z m-24.418808-93.845417c0 2.079898-0.679967 36.688209 0.809961 56.217255a9.409541 9.409541 0 0 0 3.819813 6.829666c0.689966 0.519975 1.559924 1.089947 2.479879 1.699917a45.837762 45.837762 0 0 1 8.879567 7.099654 51.577482 51.577482 0 0 1 6.179698 8.739573 41.477975 41.477975 0 0 0 2.809863 4.259792 2.879859 2.879859 0 0 0 0.849958-0.679967c0.919955-0.999951 2.949856-4.549778 1.949905-14.509292a136.893316 136.893316 0 0 1 1.559924-37.168185c3.289839-16.79918 9.949514-27.538655 19.789033-31.93844 22.898882-10.2395 38.408125-7.669626 50.877516-5.599727a101.775031 101.775031 0 0 0 10.399492 1.379933c0.949954 0.049998 1.999902 0.149993 2.999854 0.249988 6.54968 0.60997 16.449197 1.539925 33.898345-4.529779 12.719379-4.429784 31.918441-6.209697 47.647673 2.059899 10.279498 5.399736 17.429149 14.469293 20.668991 26.248719 8.139603 29.568556 10.149504 44.807812 10.369494 55.337298 0.269987-0.679967 0.549973-1.42993 0.839959-2.26989 3.729818-10.84947 9.729525-14.3293 13.699331-16.619188a10.65948 10.65948 0 0 0 2.749865-1.859909c0.669967-2.419882 1.369933-15.649236 0.909956-33.938343-0.489976-19.879029-2.059899-36.068239-4.289791-44.427831-2.699868-10.139505-13.789327-31.668454-33.248376-49.427586a114.104428 114.104428 0 0 0-37.07819-22.898882c-16.049216-5.999707-33.538362-8.129603-51.997461-6.379689h-0.549973c-0.429979 0-28.298618-0.589971-56.497241 11.799424-16.3792 7.199648-29.68855 17.319154-39.558069 30.09853-12.369396 15.97922-19.409052 36.238231-20.968976 60.257058z" fill="#323232" p-id="11821"></path><path d="M473.131898 224.699028l37.088189-30.578507a2.159895 2.159895 0 0 1 3.229842 0.529975c3.819813 6.199697 13.349348 24.918783-2.079898 36.788203-15.189258 11.67943-32.258425 1.089947-38.168137-3.319838a2.169894 2.169894 0 0 1-0.069996-3.419833z" fill="#FFFFFF" p-id="11822"></path><path d="M496.160773 239.728295c-11.239451 0-21.08897-6.449685-24.758791-9.189552a5.199746 5.199746 0 0 1-0.18999-8.169601l37.088189-30.578507a5.189747 5.189747 0 0 1 7.719623 1.269938c1.999902 3.309838 5.589727 9.999512 6.599677 17.459148 1.269938 9.529535-1.999902 17.589141-9.40954 23.308862a27.368664 27.368664 0 0 1-17.049168 5.899712z m-20.279009-13.389347c6.449685 4.589776 20.89898 12.519389 33.648357 2.709868s5.999707-24.998779 1.849909-31.998438z m-2.749866-1.63992z" fill="#323232" p-id="11823"></path><path d="M440.003515 224.699028l-37.088189-30.578507a2.169894 2.169894 0 0 0-3.239841 0.529975c-3.809814 6.199697-13.339349 24.918783 2.089898 36.788203 15.179259 11.67943 32.258425 1.089947 38.158136-3.319838a2.169894 2.169894 0 0 0 0.079996-3.419833z" fill="#FFFFFF" p-id="11824"></path><path d="M416.924642 239.728295a27.328666 27.328666 0 0 1-17.049167-5.899712c-7.439637-5.719721-10.689478-13.779327-9.409541-23.308862 0.999951-7.489634 4.559777-14.149309 6.589679-17.459148a5.199746 5.199746 0 0 1 7.729622-1.269938l37.088189 30.578507a5.199746 5.199746 0 0 1-0.189991 8.169601c-3.67982 2.739866-13.51934 9.189551-24.758791 9.189552z m-15.229256-42.667917c-4.0898 6.999658-10.809472 22.238914 1.859909 31.998437s27.198672 1.879908 33.638358-2.709867zM438.003613 226.988917z" fill="#323232" p-id="11825"></path><path d="M468.152141 268.986866s-14.519291-1.209941-20.648992 1.649919-16.729183 24.998779-16.529193 38.198135 22.288912 10.329496 29.118579 10.329496c10.739476 0 17.139163-3.509829 17.549143-20.648992S473.931859 269.986817 468.152141 268.986866z" fill="#FFFFFF" p-id="11826"></path><path d="M450.682994 322.444256c-6.699673 0-14.589288-0.789961-19.109067-5.059753a11.479439 11.479439 0 0 1-3.609824-8.499585c-0.20999-13.549338 10.369494-37.298179 18.259109-40.997998 6.669674-3.109848 20.608994-2.0499 22.178917-1.919907h0.279986c7.839617 1.399932 12.429393 13.879322 11.999414 32.56841-0.39998 16.759182-6.359689 23.588848-20.568995 23.588848-0.81996 0-1.919906 0.049998-3.189845 0.099995-1.83991 0.129994-3.919809 0.219989-6.239695 0.21999z m10.579483-50.697525c-4.49978 0-9.739524 0.339983-12.48939 1.619921-4.419784 2.059899-14.999268 22.218915-14.779278 35.418271a5.579728 5.579728 0 0 0 1.719916 4.219794c4.199795 3.999805 15.079264 3.48983 20.928978 3.249841 1.349934-0.059997 2.509877-0.109995 3.449832-0.109995 9.559533 0 14.179308-2.649871 14.53929-17.709135 0.40998-17.129164-3.749817-25.718744-6.899663-26.458708-1.469928-0.119994-3.839813-0.229989-6.469685-0.229989z" fill="#323232" p-id="11827"></path><path d="M464.602314 287.365968s136.543333 8.919564 159.092232-96.825272a5.349739 5.349739 0 0 1 10.2395-0.729964l21.998926 59.427098a5.339739 5.339739 0 0 0 9.999512 0.139993l26.998681-67.16672a5.339739 5.339739 0 0 1 9.929516 0.059997L725.699565 240.988233a5.349739 5.349739 0 0 0 9.759524 0.449978l28.648601-57.317201a5.339739 5.339739 0 0 1 9.339544-0.389981c12.199404 19.999023 39.998047 73.996387 15.999219 115.724349-30.168527 52.297446-167.9318 43.247888-327.823993 5.999707" fill="#FF742E" p-id="11828"></path><path d="M677.051941 340.043396h-2.939857c-54.997315-0.359982-128.803711-10.999463-213.439578-30.648503a3.999805 3.999805 0 0 1 1.829911-7.839617c84.055896 19.559045 157.252322 30.088531 211.659665 30.438513 60.707036 0.39998 98.2952-11.239451 111.754543-34.568312 9.849519-17.069167 11.609433-38.258132 5.219745-62.996924-5.429735-21.048972-15.56924-39.508071-21.128968-48.637625a1.249939 1.249939 0 0 0-1.169943-0.629969 1.279938 1.279938 0 0 0-1.129945 0.729964l-28.6586 57.317202a9.359543 9.359543 0 0 1-17.089166-0.779962l-22.908881-58.697134a1.22994 1.22994 0 0 0-1.219941-0.839959 1.199941 1.199941 0 0 0-1.22994 0.829959l-26.998681 67.156721a9.359543 9.359543 0 0 1-17.469147-0.249988l-21.998926-59.427098a1.21994 1.21994 0 0 0-1.329935-0.859958 1.239939 1.239939 0 0 0-1.199942 0.999951c-9.539534 44.767814-40.938001 76.256277-90.785567 91.085553a228.988819 228.988819 0 0 1-72.49646 8.909565 3.999805 3.999805 0 0 1 0.519975-7.99961c0.339983 0 33.99834 2.0499 69.896587-8.659577 47.397686-14.149309 75.996289-42.747913 84.99585-84.99585a9.369543 9.369543 0 0 1 17.999121-1.299936l21.998925 59.437098a1.319936 1.319936 0 0 0 2.45988 0l26.998682-67.166721a9.359543 9.359543 0 0 1 17.40915 0.089996l22.908881 58.697134a1.319936 1.319936 0 0 0 2.409883 0.109994l28.6586-57.317201a9.359543 9.359543 0 0 1 16.369201-0.689966c13.139358 21.598945 40.997998 76.486265 15.999219 119.834148-14.839275 25.678746-53.807373 38.668112-115.894341 38.668112z" fill="#323232" p-id="11829"></path><path d="M526.449294 297.925453S802.985792 368.312016 771.807314 247.637908l-38.208134 35.198282-36.208232-29.158577-41.227987 34.188331-21.118969-30.168527s-25.138773 41.227987-108.594698 40.228036z" fill="#FFD41D" p-id="11830"></path><path d="M411.364914 412.479859a2.589874 2.589874 0 0 1-0.479977 0c-14.12931-2.289888-35.108286 0-35.318275 0a2.999854 2.999854 0 0 1-0.669968-5.999707c0.899956-0.099995 21.998926-2.399883 36.948196 0a2.999854 2.999854 0 0 1-0.479976 5.999707zM519.109653 413.439813a2.939856 2.939856 0 0 1-0.509975 0c-20.768986-3.579825-36.538216-0.569972-36.698208-0.539974a2.999854 2.999854 0 1 1-1.159944-5.919711c0.689966-0.129994 16.99917-3.249841 38.878102 0.519975a2.999854 2.999854 0 0 1-0.509975 5.999707z" fill="#F5A79B" p-id="11831"></path></svg>